# xmcd
#
# Track frame offsets:
#	375
#	12021
#	25960
#	41557
#	58168
#	78620
#	91605
#	112961
#
# Disc length: 1740 seconds
#
# Revision: 2
# Processed by: cddbd v1.5.1PL0 Copyright (c) Steve Scherf et al.
# Submitted via: MusicWizard 7.1.1b
#
DISCID=5906c708
DTITLE=Waylon Jennings - Sweet Mother Texas
DYEAR=1986
DGENRE=Country
TTITLE0=I'm On Fire
TTITLE1=Me And Them Brothers Of Mine
TTITLE2=I Take My Comfort In You
TTITLE3=Looking For Suzanne
TTITLE4=Be Careful Who You Love (Arthur's Song) (With Johnny Cash)
TTITLE5=Sweet Mother Texas
TTITLE6=Living Legend
TTITLE7=Hangin' On
EXTD=(c)1986 RCA/Ariola International\nKatalog: PL 87184\nupc 0035628718419
EXTT0=
EXTT1=
EXTT2=
EXTT3=
EXTT4=
EXTT5=
EXTT6=
EXTT7=
PLAYORDER=
